TITLE ""
FILE "1Q_j_2156-2169.mp3" MP3
  TRACK 01 AUDIO
    TITLE "1Q_j_2156-2169_01"
    INDEX 01 00:00:00
  TRACK 02 AUDIO
    TITLE "1Q_j_2156-2169_02"
    INDEX 01 00:01:25
  TRACK 03 AUDIO
    TITLE "1Q_j_2156-2169_03"
    INDEX 01 00:01:33
  TRACK 04 AUDIO
    TITLE "1Q_j_2156-2169_04"
    INDEX 01 00:04:32
  TRACK 05 AUDIO
    TITLE "1Q_j_2156-2169_05"
    INDEX 01 00:04:39
  TRACK 06 AUDIO
    TITLE "1Q_j_2156-2169_06"
    INDEX 01 00:10:52
  TRACK 07 AUDIO
    TITLE "1Q_j_2156-2169_07"
    INDEX 01 00:11:24
  TRACK 08 AUDIO
    TITLE "1Q_j_2156-2169_08"
    INDEX 01 00:12:43
  TRACK 09 AUDIO
    TITLE "1Q_j_2156-2169_09"
    INDEX 01 00:12:51
  TRACK 10 AUDIO
    TITLE "1Q_j_2156-2169_10"
    INDEX 01 00:15:39
  TRACK 11 AUDIO
    TITLE "1Q_j_2156-2169_11"
    INDEX 01 00:15:45
  TRACK 12 AUDIO
    TITLE "1Q_j_2156-2169_12"
    INDEX 01 00:20:13
  TRACK 13 AUDIO
    TITLE "1Q_j_2156-2169_13"
    INDEX 01 00:20:58
  TRACK 14 AUDIO
    TITLE "1Q_j_2156-2169_14"
    INDEX 01 00:22:12
  TRACK 15 AUDIO
    TITLE "1Q_j_2156-2169_15"
    INDEX 01 00:22:18
  TRACK 16 AUDIO
    TITLE "1Q_j_2156-2169_16"
    INDEX 01 00:25:67
  TRACK 17 AUDIO
    TITLE "1Q_j_2156-2169_17"
    INDEX 01 00:25:75
  TRACK 18 AUDIO
    TITLE "1Q_j_2156-2169_18"
    INDEX 01 00:30:15
  TRACK 19 AUDIO
    TITLE "1Q_j_2156-2169_19"
    INDEX 01 00:30:62
  TRACK 20 AUDIO
    TITLE "1Q_j_2156-2169_20"
    INDEX 01 00:32:01
  TRACK 21 AUDIO
    TITLE "1Q_j_2156-2169_21"
    INDEX 01 00:32:08
  TRACK 22 AUDIO
    TITLE "1Q_j_2156-2169_22"
    INDEX 01 00:34:60
  TRACK 23 AUDIO
    TITLE "1Q_j_2156-2169_23"
    INDEX 01 00:34:66
  TRACK 24 AUDIO
    TITLE "1Q_j_2156-2169_24"
    INDEX 01 00:41:25
  TRACK 25 AUDIO
    TITLE "1Q_j_2156-2169_25"
    INDEX 01 00:41:70
  TRACK 26 AUDIO
    TITLE "1Q_j_2156-2169_26"
    INDEX 01 00:43:43
  TRACK 27 AUDIO
    TITLE "1Q_j_2156-2169_27"
    INDEX 01 00:43:51
  TRACK 28 AUDIO
    TITLE "1Q_j_2156-2169_28"
    INDEX 01 00:45:50
  TRACK 29 AUDIO
    TITLE "1Q_j_2156-2169_29"
    INDEX 01 00:45:58
  TRACK 30 AUDIO
    TITLE "1Q_j_2156-2169_30"
    INDEX 01 00:52:64
  TRACK 31 AUDIO
    TITLE "1Q_j_2156-2169_31"
    INDEX 01 00:53:34
  TRACK 32 AUDIO
    TITLE "1Q_j_2156-2169_32"
    INDEX 01 00:54:47
  TRACK 33 AUDIO
    TITLE "1Q_j_2156-2169_33"
    INDEX 01 00:54:57
  TRACK 34 AUDIO
    TITLE "1Q_j_2156-2169_34"
    INDEX 01 00:56:34
  TRACK 35 AUDIO
    TITLE "1Q_j_2156-2169_35"
    INDEX 01 00:56:42
  TRACK 36 AUDIO
    TITLE "1Q_j_2156-2169_36"
    INDEX 01 01:03:11
  TRACK 37 AUDIO
    TITLE "1Q_j_2156-2169_37"
    INDEX 01 01:03:58
  TRACK 38 AUDIO
    TITLE "1Q_j_2156-2169_38"
    INDEX 01 01:05:14
  TRACK 39 AUDIO
    TITLE "1Q_j_2156-2169_39"
    INDEX 01 01:05:25
  TRACK 40 AUDIO
    TITLE "1Q_j_2156-2169_40"
    INDEX 01 01:10:07
  TRACK 41 AUDIO
    TITLE "1Q_j_2156-2169_41"
    INDEX 01 01:10:15
  TRACK 42 AUDIO
    TITLE "1Q_j_2156-2169_42"
    INDEX 01 01:15:24
  TRACK 43 AUDIO
    TITLE "1Q_j_2156-2169_43"
    INDEX 01 01:15:71
  TRACK 44 AUDIO
    TITLE "1Q_j_2156-2169_44"
    INDEX 01 01:17:33
  TRACK 45 AUDIO
    TITLE "1Q_j_2156-2169_45"
    INDEX 01 01:17:38
  TRACK 46 AUDIO
    TITLE "1Q_j_2156-2169_46"
    INDEX 01 01:19:24
  TRACK 47 AUDIO
    TITLE "1Q_j_2156-2169_47"
    INDEX 01 01:19:33
  TRACK 48 AUDIO
    TITLE "1Q_j_2156-2169_48"
    INDEX 01 01:25:10
  TRACK 49 AUDIO
    TITLE "1Q_j_2156-2169_49"
    INDEX 01 01:25:58
  TRACK 50 AUDIO
    TITLE "1Q_j_2156-2169_50"
    INDEX 01 01:27:23
  TRACK 51 AUDIO
    TITLE "1Q_j_2156-2169_51"
    INDEX 01 01:27:33
  TRACK 52 AUDIO
    TITLE "1Q_j_2156-2169_52"
    INDEX 01 01:29:40
  TRACK 53 AUDIO
    TITLE "1Q_j_2156-2169_53"
    INDEX 01 01:29:45
  TRACK 54 AUDIO
    TITLE "1Q_j_2156-2169_54"
    INDEX 01 01:33:75
  TRACK 55 AUDIO
    TITLE "1Q_j_2156-2169_55"
    INDEX 01 01:34:45
  TRACK 56 AUDIO
    TITLE "1Q_j_2156-2169_56"
    INDEX 01 01:36:12
  TRACK 57 AUDIO
    TITLE "1Q_j_2156-2169_57"
    INDEX 01 01:36:20
  TRACK 58 AUDIO
    TITLE "1Q_j_2156-2169_58"
    INDEX 01 01:38:25
  TRACK 59 AUDIO
    TITLE "1Q_j_2156-2169_59"
    INDEX 01 01:38:31
  TRACK 60 AUDIO
    TITLE "1Q_j_2156-2169_60"
    INDEX 01 01:42:52
  TRACK 61 AUDIO
    TITLE "1Q_j_2156-2169_61"
    INDEX 01 01:43:26
  TRACK 62 AUDIO
    TITLE "1Q_j_2156-2169_62"
    INDEX 01 01:45:37
  TRACK 63 AUDIO
    TITLE "1Q_j_2156-2169_63"
    INDEX 01 01:45:46
  TRACK 64 AUDIO
    TITLE "1Q_j_2156-2169_64"
    INDEX 01 01:48:02
  TRACK 65 AUDIO
    TITLE "1Q_j_2156-2169_65"
    INDEX 01 01:48:12
  TRACK 66 AUDIO
    TITLE "1Q_j_2156-2169_66"
    INDEX 01 01:52:35
  TRACK 67 AUDIO
    TITLE "1Q_j_2156-2169_67"
    INDEX 01 01:53:09
  TRACK 68 AUDIO
    TITLE "1Q_j_2156-2169_68"
    INDEX 01 01:54:26
  TRACK 69 AUDIO
    TITLE "1Q_j_2156-2169_69"
    INDEX 01 01:54:36
  TRACK 70 AUDIO
    TITLE "1Q_j_2156-2169_70"
    INDEX 01 01:56:11
  TRACK 71 AUDIO
    TITLE "1Q_j_2156-2169_71"
    INDEX 01 01:56:19
  TRACK 72 AUDIO
    TITLE "1Q_j_2156-2169_72"
    INDEX 01 02:02:21
  TRACK 73 AUDIO
    TITLE "1Q_j_2156-2169_73"
    INDEX 01 02:02:66
  TRACK 74 AUDIO
    TITLE "1Q_j_2156-2169_74"
    INDEX 01 02:04:40
  TRACK 75 AUDIO
    TITLE "1Q_j_2156-2169_75"
    INDEX 01 02:04:50
  TRACK 76 AUDIO
    TITLE "1Q_j_2156-2169_76"
    INDEX 01 02:06:37
  TRACK 77 AUDIO
    TITLE "1Q_j_2156-2169_77"
    INDEX 01 02:06:43
  TRACK 78 AUDIO
    TITLE "1Q_j_2156-2169_78"
    INDEX 01 02:10:17
  TRACK 79 AUDIO
    TITLE "1Q_j_2156-2169_79"
    INDEX 01 02:10:64
  TRACK 80 AUDIO
    TITLE "1Q_j_2156-2169_80"
    INDEX 01 02:12:18
  TRACK 81 AUDIO
    TITLE "1Q_j_2156-2169_81"
    INDEX 01 02:12:26
  TRACK 82 AUDIO
    TITLE "1Q_j_2156-2169_82"
    INDEX 01 02:14:64
  TRACK 83 AUDIO
    TITLE "1Q_j_2156-2169_83"
    INDEX 01 02:14:72
  TRACK 84 AUDIO
    TITLE "1Q_j_2156-2169_84"
    INDEX 01 02:20:61
